<?xml version="1.0" encoding="UTF-8" standalone="no"?>
<svg
   id="Ebene_1"
   version="1.1"
   viewBox="0 0 1600 400"
   sodipodi:docname="teamly_url.svg"
   inkscape:export-filename="../teamlypy-logo-v2/teamly_url.svg"
   inkscape:export-xdpi="96"
   inkscape:export-ydpi="96"
   inkscape:version="1.4.2 (ebf0e940d0, 2025-05-08)"
   xmlns:inkscape="http://www.inkscape.org/namespaces/inkscape"
   xmlns:sodipodi="http://sodipodi.sourceforge.net/DTD/sodipodi-0.dtd"
   xmlns="http://www.w3.org/2000/svg"
   xmlns:svg="http://www.w3.org/2000/svg">
  <sodipodi:namedview
     id="namedview11"
     pagecolor="#505050"
     bordercolor="#eeeeee"
     borderopacity="1"
     inkscape:showpageshadow="0"
     inkscape:pageopacity="0"
     inkscape:pagecheckerboard="0"
     inkscape:deskcolor="#505050"
     inkscape:zoom="0.76"
     inkscape:cx="800"
     inkscape:cy="199.34211"
     inkscape:window-width="1920"
     inkscape:window-height="1056"
     inkscape:window-x="0"
     inkscape:window-y="0"
     inkscape:window-maximized="1"
     inkscape:current-layer="Ebene_1" />
  <!-- Generator: Adobe Illustrator 29.5.0, SVG Export Plug-In . SVG Version: 2.1.0 Build 137)  -->
  <defs
     id="defs1">
    <style
       id="style1">
      .st0 {
        fill: #f0f3e1;
      }

      .st1 {
        fill: #279a77;
      }

      .st2 {
        fill: #121115;
      }
    </style>
  </defs>
  <rect
     class="st2"
     width="1600"
     height="400"
     id="rect1"
     style="fill:#282c34;fill-opacity:1" />
  <g
     id="g2">
    <path
       class="st0"
       d="M869.47,56.59h-140.28c-11.99,0-20.94,9.14-20.94,21.13h0c0,11.99,8.95,20.74,20.94,20.74h50.46v88.07c0,11.99,8.18,21.32,20.17,21.32h0c11.99,0,19.59-9.33,19.59-21.32v-88.07h50.07c11.99,0,21.71-8.76,21.71-20.74h0c0-11.99-9.72-21.13-21.71-21.13Z"
       id="path1"
       style="fill:#ffd343;fill-opacity:1" />
    <path
       class="st1"
       d="M894.12,114.1c-.42-1.62-2.78-10.2-3.77-10.72h-.28c-5.59,4.95-12.95,7.96-21.01,7.96h-37.63v77.75c0,17.51-14.2,30.75-31.71,30.75s-31.71-13.23-31.71-30.75v-77.75h-36.86c-7.97,0-15.25-2.94-20.82-7.79-.04,0-.09.02-.13.04-.08-.07-.16-.14-.24-.21h-.28c-.99.52-3.35,9.1-3.77,10.72l.07.09c-11.17,41.87,9.6,88.87,47.95,109.07,10.5,5.53,21.6,8.16,33.1,10.8.78.18,1.52.05,1.8.37.39.45.14,1.36.11,1.89-.05,1.06,0,2.13,0,3.18v6.37c0,3.09.02,6.18.02,9.27,0,2.02-.33,5.45,2.51,5.7,1.74.15,4.51-2.53,5.76-3.68,7.04-6.49,18.34-20.34,26.31-24.05,3.17-1.48,6.88-2.75,10.15-4.1,15.21-6.28,30.27-16.61,40.67-29.32,19.48-23.8,27.48-55.59,19.76-85.58Z"
       id="path2"
       style="fill:#3776ab;fill-opacity:1" />
  </g>
  <g
     id="g11">
    <path
       class="st0"
       d="M639.63,289.95v9.53h7.81v8.65h-7.81v21.05c0,1.81.42,3.15,1.27,4,.85.86,2.21,1.28,4.09,1.28.72,0,1.31-.01,1.76-.04s.94-.06,1.46-.11l.77,8.38c-.67.13-2.27.24-3.23.34-.96.1-1.97.15-3.02.15-2.52,0-4.67-.21-6.45-.64-1.77-.43-3.22-1.1-4.35-2.02s-1.94-2.1-2.46-3.53c-.51-1.43-.77-3.17-.77-5.21v-23.66h-5.67v-8.65h5.67v-9.53h10.91Z"
       id="path3"
       style="fill:#3776ab;fill-opacity:1" />
    <path
       class="st0"
       d="M694.3,329.61c-.44,1.96-.97,4.08-2.06,5.65-1.09,1.57-2.47,2.91-4.14,4.02-1.67,1.11-3.6,1.96-5.8,2.55-2.2.59-4.59.89-7.19.89-3.24,0-6.13-.49-8.67-1.45-2.54-.97-4.7-2.38-6.48-4.23-1.77-1.85-3.12-4.11-4.05-6.78s-1.39-5.69-1.39-9.06.47-6.45,1.41-9.16c.94-2.71,2.29-5,4.07-6.89s3.92-3.34,6.44-4.36c2.52-1.02,5.36-1.53,8.52-1.53s5.94.48,8.4,1.43c2.47.96,4.55,2.34,6.26,4.14,1.71,1.8,3.01,4,3.91,6.61.9,2.61,1.35,5.56,1.35,8.85v3.36h-29.18v1.34c.03,1.56.28,2.96.75,4.19.48,1.23,1.13,2.29,1.97,3.15.83.87,1.84,1.54,3.03,2,1.18.47,2.51.7,3.97.7,2.24,0,4.09-.37,5.57-1.11,1.48-.74,2.28-2.93,2.87-4.31h10.45ZM674.99,307.68c-1.31,0-2.51.21-3.58.64-1.08.43-2.02,1.03-2.83,1.81-.81.78-1.46,1.72-1.95,2.81-.49,1.09-.78,2.32-.89,3.68h18.12c-.13-2.77-.98-4.95-2.54-6.55-1.57-1.6-3.68-2.4-6.32-2.4Z"
       id="path4"
       style="fill:#3776ab;fill-opacity:1" />
    <path
       class="st0"
       d="M713.74,342.78c-2.03,0-3.88-.3-5.56-.9-1.67-.6-3.12-1.46-4.34-2.57-1.22-1.11-2.16-2.45-2.84-4.01-.67-1.56-1.01-3.31-1.01-5.25,0-3.86,1.4-6.87,4.19-9.03s6.81-3.39,12.07-3.7l10.16-.61v-3.45c0-1.76-.6-3.12-1.81-4.08-1.21-.96-2.96-1.44-5.27-1.44-2,0-3.65.33-4.95,1-1.29.67-2.17,1.64-2.63,2.91h-10.2c.18-1.94.74-3.7,1.69-5.27.95-1.57,2.23-2.91,3.82-4.03,1.6-1.11,3.48-1.96,5.65-2.55,2.17-.59,4.57-.88,7.21-.88s5.23.33,7.4.98c2.17.65,3.99,1.59,5.46,2.82s2.59,2.73,3.37,4.5c.77,1.78,1.16,3.79,1.16,6.04v28.87h-10.32v-6.54h0c-1.09,1.94-3.81,4.48-5.95,5.56-2.14,1.09-4.59,1.63-7.33,1.63ZM717.39,334.39c1.29,0,2.49-.19,3.58-.58,1.09-.38,2.04-.92,2.85-1.61s1.45-1.49,1.9-2.41.69-1.92.69-2.99v-3.11l-8.49.54c-4.72.33-7.08,2.03-7.08,5.1,0,1.58.61,2.82,1.83,3.72,1.22.9,2.79,1.34,4.72,1.34Z"
       id="path5"
       style="fill:#3776ab;fill-opacity:1" />
    <path
       class="st0"
       d="M756.74,305.44c1.14-.99,2.08-2.19,3.29-3.13,1.69-1.31,3.59-2.44,5.66-3.04,1.21-.35,2.49-.53,3.84-.53,2.92,0,5.35.68,7.29,2.03,1.94,1.36,3.99,3.26,4.82,5.72h0c.47-1.16,1.12-2.22,1.93-3.17.81-.95,1.76-1.77,2.83-2.45,1.08-.68,2.26-1.21,3.56-1.58s2.67-.55,4.12-.55c2.05,0,3.9.33,5.57.99,1.66.66,3.07,1.6,4.22,2.81s2.04,2.69,2.66,4.43c.62,1.73.94,3.68.94,5.83v28.77h-10.91v-25.84c0-4.97-2.3-7.45-6.9-7.45-1.1,0-2.1.19-3,.57s-1.67.91-2.31,1.58c-.64.67-1.13,1.48-1.46,2.41s-.51,1.96-.51,3.08v25.65h-10.5v-26.3c0-2.23-.6-3.95-1.8-5.17s-2.87-1.82-5.02-1.82c-1.07,0-2.06.2-2.94.61-.89.41-1.66.96-2.31,1.67s-1.16,1.56-1.52,2.55c-.36.99-.54,2.06-.54,3.23v25.23h-10.91v-41.91s9.89,0,9.89,0v5.79Z"
       id="path6"
       style="fill:#3776ab;fill-opacity:1" />
    <path
       class="st0"
       d="M817.72,283.8h10.91v58.65h-10.91v-58.65Z"
       id="path7"
       style="fill:#3776ab;fill-opacity:1" />
    <path
       class="st0"
       d="M843.77,358.01h-.77c-.41,0-2.41,0-2.89-.02-.49-.01-.94-.03-1.36-.04-.42-.01-.69-.03-.79-.06l3.1-9.06c.1.03.27.04.5.06.23.01.48.02.75.02h1.29c2.1,0,2.21-.36,3.43-1.08,1.22-.72,2.06-1.9,2.52-3.52l.38-1.55-14.87-42.96h12.33l8.91,32.35h0l9.61-32.35h11.83l-14.6,43.35c-.9,2.76-1.92,5.08-3.05,6.97-1.14,1.88-2.48,3.41-4.01,4.59-1.54,1.17-3.31,2.02-5.32,2.53-2.01.52-4.34.77-6.97.77Z"
       id="path8"
       style="fill:#3776ab;fill-opacity:1" />
    <path
       class="st0"
       d="M880.73,343.47c-1,0-1.91-.16-2.72-.49-.81-.33-1.51-.78-2.1-1.36-.59-.58-1.04-1.27-1.35-2.08-.31-.8-.47-1.69-.47-2.64s.16-1.83.47-2.62c.31-.79.76-1.48,1.35-2.06.59-.58,1.29-1.03,2.1-1.36.81-.33,1.72-.49,2.72-.49s1.91.16,2.74.49c.83.33,1.52.78,2.1,1.36.57.58,1.02,1.27,1.33,2.06.31.79.47,1.67.47,2.62s-.16,1.84-.47,2.64c-.31.81-.76,1.5-1.33,2.08s-1.27,1.03-2.1,1.36c-.82.33-1.74.49-2.74.49Z"
       id="path9"
       style="fill:#3776ab;fill-opacity:1" />
    <path
       class="st0"
       d="M916.84,298.76c2.62,0,4.97.5,7.05,1.5,2.07,1,3.84,2.46,5.3,4.37,1.46,1.91,2.58,4.24,3.36,6.99.77,2.75,1.16,5.86,1.16,9.35s-.38,6.6-1.14,9.35c-.76,2.75-1.87,5.07-3.32,6.97-1.45,1.9-3.21,3.36-5.27,4.37-2.06,1.02-4.38,1.52-6.95,1.52-2.97,0-5.54-.64-7.7-1.91-2.16-1.28-4.43-3.06-5.45-5.35h0v22.44h-10.91v-58.9h10.57v7.07h0c.55-1.2,1.93-2.28,2.79-3.24.86-.96,1.83-1.78,2.91-2.46,1.07-.68,2.26-1.19,3.54-1.54,1.29-.35,2.64-.53,4.07-.53ZM913.12,333.7c1.47,0,2.79-.29,3.96-.86,1.16-.57,2.14-1.41,2.94-2.5.8-1.09,1.41-2.43,1.84-4s.64-3.36.64-5.37-.21-3.75-.64-5.31c-.42-1.56-1.04-2.89-1.86-3.98-.81-1.09-1.79-1.93-2.94-2.52-1.15-.59-2.45-.88-3.9-.88s-2.75.29-3.92.88c-1.16.59-2.15,1.42-2.96,2.52-.81,1.09-1.44,2.43-1.87,4-.44,1.58-.66,3.35-.66,5.33s.22,3.75.66,5.31c.44,1.56,1.06,2.89,1.87,3.98.81,1.09,1.79,1.93,2.94,2.52,1.15.59,2.45.88,3.9.88Z"
       id="path10"
       style="fill:#3776ab;fill-opacity:1" />
    <path
       class="st0"
       d="M976.95,306.08l-12.49,37.07c-.9,2.76-1.92,5.08-3.05,6.97-1.14,1.88-2.48,3.41-4.01,4.59-1.54,1.17-3.31,2.02-5.32,2.53-2.01.52-4.34.77-6.97.77h-.77c-.41,0-2.41,0-2.89-.02-.49-.01-.94-.03-1.36-.04-.42-.01-.69-.03-.79-.06l3.1-9.06c.1.03.27.04.5.06.23.01.48.02.75.02h1.29c2.1,0,2.21-.36,3.43-1.08,1.22-.72,2.06-1.9,2.52-3.52l.38-1.55-14.87-42.96h12.33l8.91,32.35h0l9.61-32.35h9.5l.22,6.28Z"
       id="path11"
       style="fill:#3776ab;fill-opacity:1" />
  </g>
</svg>
